<svg xmlns="http://www.w3.org/2000/svg" viewBox="0 0 217.75 216.69"><defs><style>.cls-1{fill:#463a8e;}.cls-2{fill:#853a81;}.cls-3{fill:#374194;}.cls-4{fill:#6b3a84;}</style></defs><title>compass</title><g id="Calque_2" data-name="Calque 2"><g id="Calque_1-2" data-name="Calque 1"><polygon points="36.32 34.49 88.32 71.49 87.32 85.49 73.32 86.49 36.32 34.49"/><polygon points="36.32 179.49 73.32 127.49 88.32 127.49 88.32 142.49 36.32 179.49"/><polygon points="181.32 178.49 129.32 142.49 128.32 125.49 144.32 127.49 181.32 178.49"/><polygon points="180.32 34.49 144.32 86.49 130.32 85.49 129.32 71.49 180.32 34.49"/><polygon class="cls-1" points="108.82 0 124.83 95 108.82 108.88 92.81 95 108.82 0"/><polygon class="cls-2" points="217.75 108.1 122.75 124.11 108.88 108.1 122.75 92.09 217.75 108.1"/><polygon class="cls-3" points="108.82 216.69 92.81 121.69 108.82 107.81 124.83 121.69 108.82 216.69"/><polygon class="cls-4" points="0 108.48 95 92.47 108.88 108.48 95 124.49 0 108.48"/></g></g></svg>