<svg id="glass_wall" class="no_js" xmlns="http://www.w3.org/2000/svg" viewBox="0 0 1237.24 1080.5">
    <defs>
        <style>.eclat{fill:#fff;stroke:#fff;stroke-width:2}</style>
    </defs>
    <g id="Calque_2">
            <polygon class="eclat" points="1236.09 0 999.27 108.69 1236.09 100.68 1236.09 0"/>
            <polygon class="eclat" points="843.68 0 999.27 108.69 1236.09 0 843.68 0"/>
            <polygon class="eclat" points="1174.31 234.53 843.68 0 911.18 305.47 1174.31 234.53"/>
            <polygon class="eclat" points="1236.09 100.68 1236.09 276.86 999.27 108.69 1236.09 100.68"/>
            <polygon class="eclat" points="765.88 343.22 1174.31 234.53 1236.09 276.86 1236.09 361.52 765.88 343.22"/>
            <polygon class="eclat" points="662.91 0 911.18 305.47 843.68 0 662.91 0"/>
            <polygon class="eclat" points="765.88 343.22 513.04 219.66 911.18 305.47 765.88 343.22"/>
            <polygon class="eclat" points="1032.59 353.6 1236.09 640.68 1236.09 361.52 1032.59 353.6"/>
            <polygon class="eclat" points="849.4 346.65 1236.09 640.68 1032.45 353.52 849.4 346.65"/>
            <polygon class="eclat"
                     points="952.74 425.23 676.64 687.59 750.42 335.66 769.15 343.39 849.4 346.65 952.74 425.23"/>
            <polygon class="eclat" points="1113.93 547.79 726.01 640.68 952.37 425.59 1113.93 547.79"/>
            <polygon class="eclat" points="1236.09 845.47 1000.99 574.84 870.01 606.2 1236.09 845.47"/>
            <polygon class="eclat" points="1236.09 640.68 1236.09 845.47 1000.41 574.32 1113.68 548.01 1236.09 640.68"/>
            <polygon class="eclat"
                     points="1039.89 717.23 883.72 779.11 629.74 753.94 677.15 685.17 728.55 640.07 869.99 606.36 1039.89 717.23"/>
            <polygon class="eclat" points="589.7 1.14 416.94 247.12 513.04 219.66 911.18 305.47 662.91 0 589.7 1.14"/>
            <polygon class="eclat" points="702.25 565.42 470.41 231.84 513.04 219.66 749.87 335.21 702.25 565.42"/>
            <polygon class="eclat" points="1134.34 779.11 1016.43 981.61 1237.24 995.34 1236.09 845.47 1134.34 779.11"/>
            <polygon class="eclat"
                     points="849.4 775.71 861.98 1080 1016.43 981.61 1134.27 779.11 1039.31 716.19 886.01 779.11 849.4 775.71"/>
            <polygon class="eclat" points="856.02 935.72 519.91 985.04 773 768.14 849.4 775.68 856.02 935.72"/>
            <polygon class="eclat" points="629.74 753.94 421.52 820.3 662.91 862.48 772.75 767.67 629.74 753.94"/>
            <polygon class="eclat" points="701.81 565.17 329.99 392.42 254.48 518.26 701.81 565.17"/>
            <polygon class="eclat" points="470.71 232.25 279.65 288.31 329.99 392.42 701.81 565.17 470.71 232.25"/>
            <polygon class="eclat"
                     points="610.14 760.19 407.79 626.95 638.87 558.57 701.81 565.17 676.64 685.3 629.74 753.94 610.14 760.19"/>
            <polygon class="eclat" points="455.53 809.46 309.4 631.53 407.79 626.95 610.29 759.66 455.53 809.46"/>
            <polygon class="eclat"
                     points="181.26 511.4 217.87 640.68 309.4 631.53 408.84 626.64 637.46 558.57 181.26 511.4"/>
            <polygon class="eclat" points="279.65 288.31 120.63 271.14 310.77 424.45 329.99 392.42 279.65 288.31"/>
            <polygon class="eclat" points="490.73 142.05 246.47 1.14 589.7 1.14 490.73 142.05"/>
            <polygon class="eclat"
                     points="365.14 263.22 181.26 0 246.47 1.14 491.31 141.86 416.94 247.12 365.14 263.22"/>
            <polygon class="eclat" points="125.12 271.14 273.2 131.61 365.46 263.14 279.65 288.31 125.12 271.14"/>
            <polygon class="eclat" points="181.26 0 0.5 1.14 0.5 180.76 210.18 41.4 181.26 0"/>
            <polygon class="eclat" points="272.79 131.57 0.5 180.76 209.86 41.19 272.79 131.57"/>
            <polygon class="eclat" points="125.2 271.14 1.64 318.05 0.5 180.76 272.79 131.57 125.2 271.14"/>
            <polygon class="eclat" points="265.92 388.98 1.64 318.05 125.2 271.14 265.92 388.98"/>
            <polygon class="eclat"
                     points="309.4 424.45 254.48 518.26 1.64 496.52 210.18 374.02 265.92 388.98 309.4 424.45"/>
            <polygon class="eclat" points="1.64 318.05 1.64 496.52 209.86 374.11 1.64 318.05"/>
            <polygon class="eclat" points="217.87 640.68 0.5 558.3 1.64 496.52 181.26 511.4 217.87 640.68"/>
            <polygon class="eclat" points="455.84 808.86 217.87 640.68 309.4 631.53 455.84 808.86"/>
            <polygon class="eclat" points="1.64 740.21 293.34 694.02 217.87 640.68 0.5 558.3 1.64 740.21"/>
            <polygon class="eclat" points="455.84 808.86 1.64 740.21 291.76 694.27 455.84 808.86"/>
            <polygon class="eclat" points="1237 1080.5 1237 995.5 1016 981.5 862 1080.5 1237 1080.5"/>
            <polygon class="eclat" points="175.41 768.14 0 964.5 2 740.5 175.41 768.14"/>
            <polygon class="eclat" points="324.08 788.94 137 1080.5 114.69 836.12 175 768.5 324.08 788.94"/>
            <polygon class="eclat" points="0 964.5 1 1080.5 137 1080.5 115 836.5 0 964.5"/>
            <polygon class="eclat" points="324 1080.5 348.58 792.64 324 788.5 137 1080.5 324 1080.5"/>
            <polygon class="eclat" points="513.04 836.5 324 1080.5 349 788.5 456 808.5 422 820.5 513.04 836.5"/>
            <polygon class="eclat" points="324 1080.5 513 836.5 663 862.5 408 1079.5 324 1080.5"/>
            <polygon class="eclat" points="856 934.5 862 1080.5 408 1079.5 519.91 985.04 856 934.5"/>
    </g>
</svg>