<svg version="1.1" id="loader" class="" xmlns="http://www.w3.org/2000/svg"
	 xmlns:xlink="http://www.w3.org/1999/xlink"
	 x="0px" y="0px"
	 viewBox="0 0 87.9 191.9" style="enable-background:new 0 0 87.9 191.9;" xml:space="preserve">
<style type="text/css">
    .st0 {
        fill: none;
    }

    .st1 {
        fill: #374194;
    }

    .st2 {
        fill: #514F9C;
    }

    .st3 {
        fill: #5C398E;
    }

    .st4 {
        fill: #9162A6;
    }

    .st5 {
        fill: #6B3A84;
    }

    .st6 {
        fill: #853A81;
    }

    .st7 {
        fill: #463A8E;
    }

    .st8 {
        fill: #FFFFFF;
    }
</style>
	<g id="Calque_2_1_">
                    <g id="Calque_3">
                        <polygon id="shadow-support" class="st0" points="87.9,2.3 86.2,1.6 60.5,25.8 4.8,124.2 7.8,165 4,174.2 2.8,187.8 13.4,171.2
			18.8,162.9 51.4,129.5 		"/>
						<polygon id="load_frag_1" class="st1"
								 points="7.5,119.6 4.8,124.2 7.9,166.2 21.6,137.4 		"/>
						<polygon id="load_frag_2" class="st2"
								 points="13.9,108.5 7.5,119.6 21.6,137.4 23.4,133.6 		"/>
						<polygon id="load_frag_3" class="st3"
								 points="16.7,103.6 13.9,108.5 23.4,133.6 32.3,115.5 		"/>
						<polygon id="load_frag_4" class="st4"
								 points="30.5,79.4 16.7,103.6 32.3,115.5 37.1,104.7 		"/>
						<polygon id="load_frag_5" class="st5"
								 points="37.7,67.1 30.5,79.4 37.1,104.7 61.1,54.3 		"/>
						<polygon id="load_frag_6" class="st6" points="60.7,27 37.7,67.1 61.1,54.3 86.2,1.6 		"/>
						<polygon id="load_right_1" class="st7"
								 points="54,120.4 51.4,129.5 18.8,162.9 42.5,107.8 		"/>
						<polygon id="load_right_4" class="st7" points="75.4,45.9 64.6,56.4 87.9,2.3 		"/>
						<polygon id="load_right_2" class="st7" points="42.5,107.8 53,83.3 64.6,83.3 54,120.4 		"/>
						<polygon id="load_right_3" class="st7" points="53,83.3 64.6,83.3 75.4,45.9 64.6,56.4 		"/>
						<polygon id="load_core_2" class="st8" points="48.1,91.1 65.2,51.6 86.2,1.6 46.2,85.8 		"/>
						<polygon id="load_core_1" class="st8"
								 points="46.2,85.8 4,174.2 2.8,187.8 13.4,171.2 48.1,91.1 		"/>
                    </g>
                </g>
</svg>